<svg width="512" height="512" viewBox="0 0 512 512" fill="none" xmlns="http://www.w3.org/2000/svg">
<path d="M412.242 148.54C399.031 148.745 386.198 152.984 375.463 160.687C364.728 168.391 356.605 179.192 352.181 191.642C351.665 192.915 350.014 198.213 350.014 198.213L312.071 362.435H399.239C429.167 362.435 454.519 340.832 461.674 311.731L499.513 148.437L412.242 148.54Z" fill="#51B848"/>
<path d="M267.146 101C253.217 101.043 239.683 105.627 228.596 114.058C217.508 122.488 209.473 134.304 205.708 147.714C205.123 149.744 204.676 151.808 204.263 153.872L145.131 410.113H232.196C246.454 410.059 260.287 405.248 271.503 396.444C282.719 387.64 290.676 375.345 294.115 361.506L354.314 101H267.146Z" fill="#F37021"/>
<path d="M100.171 148.54C86.4519 148.759 73.1537 153.312 62.1799 161.549C51.2062 169.785 43.1196 181.282 39.0777 194.394L38.5273 196.183L37.0825 201.928L0 362.435H89.232C102.169 362.243 114.731 358.059 125.199 350.454C135.667 342.85 143.529 332.196 147.711 319.952L151.151 304.679L187.27 148.54H100.171Z" fill="#034EA2"/>
<path d="M83.8657 201.928H82.5241C76.1005 201.989 69.9075 204.33 65.0492 208.532C60.5374 211.99 57.1501 216.706 55.3142 222.086L35.2593 309.047H36.3945C42.8675 308.964 49.1038 306.601 54.007 302.374C59.1883 298.377 62.833 292.715 64.3268 286.344L68.6955 267.493H108.427C114.922 267.334 121.156 264.899 126.039 260.613C131.224 256.649 134.872 251.007 136.359 244.652L136.6 243.517H74.1994L78.3618 225.595H132.369C138.768 225.527 144.941 223.213 149.809 219.059C154.937 215.027 158.57 209.397 160.129 203.063L160.404 201.928H83.8657Z" fill="white"/>
<path d="M304.228 207.191C302.478 205.467 300.395 204.117 298.106 203.224C295.818 202.331 293.371 201.913 290.915 201.997L214.79 201.928L190.16 308.91H191.295C197.78 308.834 204.03 306.471 208.942 302.236C214.111 298.227 217.752 292.571 219.262 286.206L223.665 267.115H276.433C282.594 267.609 288.72 265.808 293.633 262.058C298.895 257.546 302.602 251.492 304.228 244.755L308.838 224.838C309.198 223.234 309.383 221.596 309.388 219.953C309.453 217.585 309.028 215.229 308.14 213.033C307.253 210.837 305.921 208.848 304.228 207.191ZM280.458 243.62H229.169L233.331 225.663H284.93L280.458 243.62Z" fill="white"/>
<path d="M459.472 207.26C457.74 205.521 455.665 204.162 453.379 203.268C451.093 202.374 448.647 201.964 446.194 202.065H365.769V202.822C365.432 204.372 365.236 205.95 365.184 207.535C365.078 209.939 365.466 212.339 366.324 214.587C367.182 216.836 368.491 218.884 370.172 220.607C371.897 222.325 373.956 223.673 376.222 224.566C378.488 225.459 380.912 225.88 383.347 225.801H400.168L381.007 309.047H382.143C388.62 308.984 394.863 306.619 399.755 302.374C404.936 298.377 408.581 292.715 410.075 286.344L424.144 225.801H463.807V225.044C464.145 223.437 464.329 221.801 464.357 220.159C464.477 217.789 464.105 215.419 463.265 213.198C462.424 210.978 461.133 208.956 459.472 207.26Z" fill="white"/>
<path d="M475.124 344.1C475.104 340.444 476.171 336.863 478.191 333.815C480.211 330.766 483.091 328.387 486.467 326.98C489.842 325.572 493.559 325.2 497.147 325.911C500.734 326.622 504.028 328.384 506.612 330.972C509.195 333.561 510.951 336.859 511.655 340.447C512.359 344.035 511.98 347.752 510.567 351.125C509.153 354.498 506.769 357.374 503.716 359.388C500.664 361.402 497.081 362.462 493.425 362.435C488.541 362.426 483.86 360.48 480.409 357.023C476.959 353.566 475.021 348.881 475.021 343.997M507.391 343.997C507.19 341.288 506.204 338.696 504.552 336.539C502.901 334.382 500.656 332.753 498.093 331.853C495.53 330.952 492.76 330.819 490.122 331.469C487.484 332.118 485.093 333.523 483.242 335.512C481.391 337.5 480.159 339.985 479.699 342.662C479.238 345.339 479.569 348.093 480.649 350.585C481.73 353.078 483.514 355.201 485.783 356.695C488.052 358.188 490.708 358.988 493.425 358.995C495.329 358.975 497.21 358.569 498.954 357.804C500.698 357.038 502.269 355.928 503.574 354.54C504.878 353.152 505.888 351.515 506.544 349.727C507.2 347.939 507.488 346.037 507.391 344.135M486.545 333.574H494.319C499.307 333.574 502.024 335.329 502.024 339.697C502.065 340.438 501.948 341.179 501.681 341.871C501.415 342.564 501.005 343.192 500.479 343.715C499.953 344.238 499.322 344.644 498.628 344.906C497.934 345.168 497.192 345.28 496.452 345.236L502.059 354.351H498.069L492.702 345.339H490.329V354.351H486.545V333.574ZM490.432 342.518H493.872C496.142 342.518 498.137 342.174 498.137 339.422C498.137 336.67 495.901 336.533 493.906 336.533H490.466L490.432 342.518Z" fill="#0E69AF"/>
</svg>
